<?xml version="1.0" encoding="UTF-8"?>
<svg version="1.1" viewBox="0 0 109 42" xmlns="http://www.w3.org/2000/svg" xmlns:cc="http://creativecommons.org/ns#" xmlns:dc="http://purl.org/dc/elements/1.1/" xmlns:rdf="http://www.w3.org/1999/02/22-rdf-syntax-ns#">
<metadata>
<rdf:RDF>
<cc:Work rdf:about="">
<dc:format>image/svg+xml</dc:format>
<dc:type rdf:resource="http://purl.org/dc/dcmitype/StillImage"/>
<dc:title/>
</cc:Work>
</rdf:RDF>
</metadata>
<text transform="translate(-23.074 -36.777)" fill="#338000" font-family="sans-serif" font-size="18.667px" letter-spacing="1.21px" text-align="center" word-spacing=".57px" style="line-height:1.25;shape-inside:url(#rect892-1);white-space:pre" xml:space="preserve"><tspan x="68.220212" y="54.203155"><tspan dx="0 0 0 0 0 0 0 -0.56999904" fill="#338000" font-family="Dyuthi">Perfect
</tspan></tspan><tspan x="19.187031" y="78.648513"><tspan fill="#338000" font-family="Dyuthi">
</tspan></tspan></text>
<path d="m3.9019 17.903 17.132-13.522 16.801 12.842" fill="none" stroke="#000" stroke-linecap="round" stroke-width="3.9"/>
<path d="m10.13 12.095-0.06744-5.6473" fill="none" stroke="#000" stroke-width="4"/>
<rect x="15.258" y="17.675" width="4.5737" height="4.5737"/>
<rect x="22.433" y="17.668" width="4.5737" height="4.5737"/>
<rect x="15.258" y="24.603" width="4.5737" height="4.5737"/>
<rect x="22.433" y="24.596" width="4.5737" height="4.5737"/>
<path d="m21.846 39.399s-4.1729 1.9732-7.5905 0c-3.4176-1.9732-5.7793-6.1984-5.7793-6.1984s6.0131-0.61404 8.7567 0.91087c4.7317 2.6298 4.6131 5.2875 4.6131 5.2875z" fill="#3dd300"/>
<path d="m23.847 38.566s0.07936-7.1068 5.8944-11.412c3.1325-2.3191 9.4641-2.3183 9.4641-2.3183s-0.36785 4.9881-2.6259 8.2654c-1.6981 2.4646-4.9648 4.6428-7.7119 5.5458-3.7846 1.2441-4.496 0.66884-4.4396 0.65688 0 0 3.0928-2.5564 4.7163-3.9987 1.6236-1.4423 2.9316-2.8503 2.9316-2.8503s-3.3784 2.9883-5.0244 4.0586c-1.6459 1.0703-3.2046 2.0525-3.2046 2.0525z" fill="#3dd300"/>
<text fill="#ff0000" font-family="sans-serif" font-size="18.667px" letter-spacing="7.23px" text-align="center" word-spacing="0px" style="line-height:1.25;shape-inside:url(#rect886);white-space:pre" xml:space="preserve"><tspan x="48.517578" y="125.67581" visibility="hidden"><tspan dx="0 14.036484 11.420593 18.183628 11.484394 9.7252769 11.848988" fill="#ff0000">Homesdf</tspan></tspan></text>
<text transform="translate(-30.472 -20.226)" fill="#158000" font-family="sans-serif" font-size="18.667px" letter-spacing="1.21px" text-align="center" word-spacing=".57px" style="line-height:1.25;shape-inside:url(#rect892);white-space:pre" xml:space="preserve"><tspan x="75.166731" y="54.203155"><tspan dx="0 0 0 0 -0.56999904" fill="#158000" font-family="Dyuthi">Home
</tspan></tspan></text>
<text transform="translate(-28.188 7.6776)" fill="#800000" font-family="sans-serif" font-size="18.667px" letter-spacing="1.21px" text-align="center" word-spacing=".57px" style="line-height:1.25;shape-inside:url(#rect892-1-5);white-space:pre" xml:space="preserve"><tspan x="99.384297" y="54.203155"><tspan fill="#800000" font-family="Dyuthi">
</tspan></tspan><tspan x="19.187031" y="78.648513"><tspan fill="#800000" font-family="Dyuthi">
</tspan></tspan></text>
</svg>
