<?xml version="1.0" encoding="UTF-8" standalone="no"?>
<svg
   xmlns:dc="http://purl.org/dc/elements/1.1/"
   xmlns:cc="http://creativecommons.org/ns#"
   xmlns:rdf="http://www.w3.org/1999/02/22-rdf-syntax-ns#"
   xmlns:svg="http://www.w3.org/2000/svg"
   xmlns="http://www.w3.org/2000/svg"
   xmlns:sodipodi="http://sodipodi.sourceforge.net/DTD/sodipodi-0.dtd"
   xmlns:inkscape="http://www.inkscape.org/namespaces/inkscape"
   width="16.065001mm"
   height="16.065001mm"
   viewBox="0 0 16.065001 16.065001"
   version="1.1"
   id="svg1023"
   inkscape:version="1.0.2 (e86c870879, 2021-01-15)"
   sodipodi:docname="favicon.svg">
  <defs
     id="defs1017" />
  <sodipodi:namedview
     id="base"
     pagecolor="#ffffff"
     bordercolor="#666666"
     borderopacity="1.0"
     inkscape:pageopacity="0.0"
     inkscape:pageshadow="2"
     inkscape:zoom="3.6030731"
     inkscape:cx="16.531064"
     inkscape:cy="35.308246"
     inkscape:document-units="mm"
     inkscape:current-layer="layer1"
     inkscape:document-rotation="0"
     showgrid="false"
     units="mm"
     inkscape:window-width="1366"
     inkscape:window-height="704"
     inkscape:window-x="0"
     inkscape:window-y="27"
     inkscape:window-maximized="1" />
  <metadata
     id="metadata1020">
    <rdf:RDF>
      <cc:Work
         rdf:about="">
        <dc:format>image/svg+xml</dc:format>
        <dc:type
           rdf:resource="http://purl.org/dc/dcmitype/StillImage" />
        <dc:title></dc:title>
      </cc:Work>
    </rdf:RDF>
  </metadata>
  <g
     inkscape:label="Layer 1"
     inkscape:groupmode="layer"
     id="layer1">
    <circle
       style="fill:#f2f2f2;stroke-width:0.132293;stroke-linecap:round"
       id="path2251"
       cx="8.0369511"
       cy="8.0544577"
       r="8.0326443" />
    <path
       d="m 3.5235757,7.0435343 4.53284,-3.5777 4.4452603,3.39778"
       fill="none"
       stroke="#000000"
       stroke-linecap="round"
       stroke-width="1.03188"
       id="path1598" />
    <path
       d="m 5.1714257,5.5068343 -0.0178,-1.49419"
       fill="none"
       stroke="#000000"
       stroke-width="1.05833"
       id="path1600" />
    <rect
       x="6.5282078"
       y="6.9832144"
       width="1.2101247"
       height="1.2101247"
       id="rect1602"
       style="stroke-width:0.264583" />
    <rect
       x="8.4265919"
       y="6.9813528"
       width="1.2101247"
       height="1.2101247"
       id="rect1604"
       style="stroke-width:0.264583" />
    <rect
       x="6.5282078"
       y="8.8162365"
       width="1.2101247"
       height="1.2101247"
       id="rect1606"
       style="stroke-width:0.264583" />
    <rect
       x="8.4265919"
       y="8.8143902"
       width="1.2101247"
       height="1.2101247"
       id="rect1608"
       style="stroke-width:0.264583" />
    <path
       d="m 8.2712857,12.731014 c 0,0 -1.10408,0.52207 -2.00832,0 -0.90424,-0.52208 -1.52911,-1.63999 -1.52911,-1.63999 0,0 1.59097,-0.16247 2.31688,0.241 1.25193,0.6958 1.22055,1.39898 1.22055,1.39898 z"
       fill="#3dd300"
       id="path1610"
       style="stroke-width:0.264583" />
    <path
       d="m 8.8007157,12.510614 c 0,0 0.021,-1.88034 1.5595603,-3.0194197 0.82881,-0.6136 2.50404,-0.61339 2.50404,-0.61339 0,0 -0.0973,1.3197697 -0.69477,2.1868897 -0.44929,0.65209 -1.3136,1.22841 -2.04044,1.46733 -1.0013403,0.32916 -1.1895603,0.17696 -1.1746403,0.17379 0,0 0.8182998,-0.67638 1.2478503,-1.05798 0.42958,-0.38161 0.77565,-0.75415 0.77565,-0.75415 0,0 -0.89386,0.79066 -1.3293705,1.07384 -0.4354798,0.28319 -0.8478798,0.54306 -0.8478798,0.54306 z"
       fill="#3dd300"
       id="path1612"
       style="stroke-width:0.264583" />
  </g>
</svg>
